<svg width="56" height="70" viewBox="0 0 56 70" fill="none" xmlns="http://www.w3.org/2000/svg">
<path d="M35 0H7C3.115 0 0 3.15 0 7V63C0 66.885 3.115 70 7 70H49C52.885 70 56 66.885 56 63V21L35 0ZM49 63H7V7H31.5V24.5H49V63ZM38.5 38.5C38.5 45.115 30.625 45.745 30.625 51.66H25.375C25.375 43.12 33.25 43.75 33.25 38.5C33.25 35.63 30.905 33.25 28 33.25C25.095 33.25 22.75 35.63 22.75 38.5H17.5C17.5 32.725 22.19 28 28 28C33.81 28 38.5 32.725 38.5 38.5ZM30.625 54.25V59.5H25.375V54.25H30.625Z" fill="white"/>
</svg>
