<svg width="118" height="124" viewBox="0 0 118 124" fill="none" xmlns="http://www.w3.org/2000/svg">
<circle cx="59" cy="50" r="25.5" fill="#EDEDED" stroke="#D7D7D7"/>
<g filter="url(#filter0_d_2630_16930)">
<path d="M49.4891 38.662C47.8915 37.9829 46.1863 36.775 45.2426 38.1905C44.299 39.606 46.3251 40.8207 47.6017 41.4933L47.6397 41.5133C49.2378 42.3552 50.8759 43.2182 54.6792 44.7957C55.1498 44.9909 55.2968 45.8235 55.2934 46.333C55.243 50.9262 54.2468 55.4737 52.4744 59.7114C51.4111 62.2537 50.6727 64.0838 50.3409 65.3528C50.4653 66.1878 51.3454 67.0177 52.1874 66.9999C53.2948 66.9764 54.0101 66.276 54.2591 65.6113L59.1533 55.1787L64.0533 65.4432C64.3023 66.1079 65.0176 66.8083 66.125 66.8318C66.967 66.8497 67.766 65.9196 67.8904 65.0846C67.5556 63.8813 67.0365 62.2327 65.9891 59.6532C64.2648 55.4072 63.0653 50.9141 63.015 46.3317C63.0108 45.9495 63.1236 45.5792 63.3309 45.2646C63.4685 45.0557 63.6881 44.9192 63.9177 44.8199C68.4719 42.8488 70.6363 41.6703 71.8432 41.1169C73.0805 40.5495 73.5523 39.6057 73.0805 38.662C72.6087 37.7184 70.9199 37.9827 69.3059 38.662C69.3059 38.662 62.151 41.6781 59.1533 41.6781C56.1556 41.6781 49.4891 38.662 49.4891 38.662Z" fill="#59595B"/>
<path d="M62.2167 36.2192C62.2167 37.9972 60.7754 39.4385 58.9974 39.4385C57.2195 39.4385 55.7782 37.9972 55.7782 36.2192C55.7782 34.4413 57.2195 33 58.9974 33C60.7754 33 62.2167 34.4413 62.2167 36.2192Z" fill="#59595B"/>
<path d="M45.2426 38.1905L44.85 37.9288H44.85L45.2426 38.1905ZM49.4891 38.662L49.6836 38.232L49.6737 38.2277L49.4891 38.662ZM54.6792 44.7957L54.4984 45.2315L54.6792 44.7957ZM47.6397 41.5133L47.4198 41.9308L47.4198 41.9308L47.6397 41.5133ZM47.6017 41.4933L47.8217 41.0759L47.8217 41.0759L47.6017 41.4933ZM73.0805 38.662L73.5025 38.451L73.0805 38.662ZM69.3059 38.662L69.1228 38.2272L69.1226 38.2273L69.3059 38.662ZM63.9177 44.8199L64.1052 45.2529L63.9177 44.8199ZM71.8432 41.1169L72.0398 41.5458L71.8432 41.1169ZM59.1533 55.1787L59.5791 54.9754C59.5005 54.8108 59.3341 54.7063 59.1517 54.7069C58.9693 54.7075 58.8036 54.8132 58.7261 54.9783L59.1533 55.1787ZM64.0533 65.4432L64.4951 65.2777L64.4879 65.2585L64.4791 65.24L64.0533 65.4432ZM63.015 46.3317L63.4868 46.3265V46.3265L63.015 46.3317ZM63.3309 45.2646L62.9369 45.005L62.9369 45.005L63.3309 45.2646ZM55.2934 46.333L55.7652 46.3382L55.7652 46.3362L55.2934 46.333ZM66.125 66.8318L66.115 67.3035L66.125 66.8318ZM67.8904 65.0846L68.357 65.1541C68.3668 65.0886 68.3627 65.0218 68.3449 64.9581L67.8904 65.0846ZM54.2591 65.6113L53.832 65.4109L53.8239 65.428L53.8173 65.4458L54.2591 65.6113ZM52.1874 66.9999L52.1974 67.4716H52.1974L52.1874 66.9999ZM50.3409 65.3528L49.8844 65.2334C49.8683 65.2951 49.8648 65.3593 49.8742 65.4223L50.3409 65.3528ZM65.9891 59.6532L66.4262 59.4757L65.9891 59.6532ZM52.4744 59.7114L52.0391 59.5294L52.4744 59.7114ZM45.6352 38.4522C45.8116 38.1876 45.9983 38.0757 46.1883 38.0307C46.3958 37.9815 46.6584 38.0006 46.9925 38.0949C47.3251 38.1887 47.6881 38.3449 48.0845 38.5302C48.4681 38.7095 48.8952 38.9222 49.3045 39.0962L49.6737 38.2277C49.2841 38.0621 48.899 37.8692 48.4841 37.6753C48.0819 37.4873 47.6601 37.3027 47.2488 37.1867C46.8389 37.071 46.3984 37.0111 45.9708 37.1124C45.5258 37.2178 45.1454 37.4857 44.85 37.9288L45.6352 38.4522ZM49.4891 38.662C49.2946 39.0918 49.2946 39.0919 49.2947 39.0919C49.2948 39.0919 49.2949 39.092 49.295 39.092C49.2953 39.0922 49.2956 39.0923 49.2961 39.0925C49.297 39.0929 49.2983 39.0935 49.3 39.0943C49.3034 39.0958 49.3084 39.0981 49.315 39.101C49.3281 39.1069 49.3474 39.1156 49.3726 39.1268C49.423 39.1492 49.4969 39.182 49.5919 39.2237C49.782 39.307 50.0562 39.4257 50.3945 39.5681C51.0708 39.8527 52.0045 40.2325 53.0336 40.6126C54.0616 40.9924 55.1904 41.3745 56.2555 41.6623C57.3124 41.9479 58.3399 42.1499 59.1533 42.1499V41.2063C58.4679 41.2063 57.5379 41.0313 56.5017 40.7513C55.4738 40.4736 54.3738 40.1017 53.3605 39.7274C52.3482 39.3535 51.428 38.9792 50.7606 38.6984C50.4271 38.558 50.1571 38.4411 49.9708 38.3594C49.8777 38.3186 49.8055 38.2866 49.7568 38.2649C49.7324 38.254 49.7139 38.2457 49.7016 38.2402C49.6955 38.2374 49.6908 38.2354 49.6878 38.234C49.6863 38.2333 49.6852 38.2328 49.6845 38.2325C49.6841 38.2323 49.6839 38.2322 49.6837 38.2322C49.6836 38.2321 49.6836 38.2321 49.6836 38.2321C49.6835 38.2321 49.6836 38.2321 49.4891 38.662ZM54.8599 44.3599C51.0735 42.7894 49.4489 41.9331 47.8596 41.0959L47.4198 41.9308C49.0267 42.7773 50.6782 43.647 54.4984 45.2315L54.8599 44.3599ZM47.8596 41.0959L47.8217 41.0759L47.3818 41.9108L47.4198 41.9308L47.8596 41.0959ZM44.85 37.9288C44.5458 38.3851 44.4652 38.86 44.5746 39.3187C44.6792 39.7567 44.946 40.1349 45.251 40.4491C45.857 41.0734 46.7445 41.575 47.3818 41.9108L47.8217 41.0759C47.1823 40.739 46.4184 40.297 45.9281 39.7919C45.685 39.5414 45.5424 39.3085 45.4925 39.0996C45.4476 38.9114 45.4676 38.7037 45.6352 38.4522L44.85 37.9288ZM73.5025 38.451C73.1365 37.7191 72.336 37.5465 71.5987 37.5821C70.8384 37.6189 69.955 37.8769 69.1228 38.2272L69.4889 39.0969C70.2708 38.7678 71.0388 38.554 71.6443 38.5247C72.2729 38.4943 72.5526 38.6613 72.6585 38.8731L73.5025 38.451ZM69.3059 38.662C69.1226 38.2273 69.1226 38.2273 69.1226 38.2273C69.1225 38.2273 69.1225 38.2273 69.1224 38.2274C69.1222 38.2274 69.1219 38.2275 69.1215 38.2277C69.1208 38.228 69.1195 38.2285 69.1179 38.2292C69.1146 38.2306 69.1096 38.2327 69.103 38.2355C69.0897 38.241 69.0698 38.2493 69.0436 38.2602C68.9913 38.282 68.9137 38.3141 68.8138 38.355C68.614 38.4368 68.3248 38.5538 67.9681 38.6943C67.2545 38.9755 66.2726 39.3502 65.1984 39.7245C64.1233 40.0992 62.9612 40.4718 61.8861 40.7501C60.8018 41.0307 59.8403 41.2063 59.1533 41.2063V42.1499C59.9651 42.1499 61.0221 41.9485 62.1225 41.6636C63.232 41.3764 64.4207 40.9949 65.509 40.6156C66.5983 40.236 67.5924 39.8566 68.314 39.5723C68.675 39.4301 68.9681 39.3115 69.1713 39.2283C69.2729 39.1867 69.352 39.154 69.4059 39.1316C69.4328 39.1204 69.4535 39.1118 69.4675 39.1059C69.4745 39.103 69.4798 39.1007 69.4834 39.0992C69.4852 39.0985 69.4866 39.0979 69.4876 39.0975C69.4881 39.0973 69.4884 39.0971 69.4887 39.097C69.4888 39.097 69.4889 39.0969 69.489 39.0969C69.4891 39.0968 69.4891 39.0968 69.3059 38.662ZM64.1052 45.2529C68.6541 43.2841 70.8741 42.0803 72.0398 41.5458L71.6465 40.688C70.3985 41.2603 68.2898 42.4135 63.7303 44.3869L64.1052 45.2529ZM72.6585 38.8731C72.832 39.2202 72.8238 39.535 72.6812 39.8186C72.5303 40.1187 72.202 40.4333 71.6465 40.688L72.0398 41.5458C72.7217 41.2331 73.2479 40.7921 73.5243 40.2425C73.809 39.6765 73.8008 39.0476 73.5025 38.451L72.6585 38.8731ZM58.7275 55.382L63.6275 65.6465L64.4791 65.24L59.5791 54.9754L58.7275 55.382ZM63.4868 46.3265C63.4837 46.041 63.5679 45.7625 63.7248 45.5243L62.9369 45.005C62.6792 45.396 62.538 45.8581 62.5432 46.3369L63.4868 46.3265ZM55.7652 46.3362C55.7672 46.0433 55.727 45.6562 55.6133 45.3022C55.5073 44.9722 55.2948 44.5403 54.8599 44.3599L54.4984 45.2315C54.5342 45.2464 54.6305 45.3283 54.7148 45.5908C54.7914 45.8293 54.823 46.1133 54.8216 46.3298L55.7652 46.3362ZM63.6114 65.6087C63.921 66.4351 64.7949 67.2755 66.115 67.3035L66.135 66.3601C65.2403 66.3411 64.6836 65.7808 64.4951 65.2777L63.6114 65.6087ZM66.115 67.3035C66.713 67.3162 67.2421 66.9963 67.6175 66.6044C67.9958 66.2095 68.2785 65.6814 68.357 65.1541L67.4237 65.015C67.3779 65.3228 67.1989 65.6772 66.9361 65.9516C66.6704 66.229 66.379 66.3653 66.135 66.3601L66.115 67.3035ZM58.7261 54.9783L53.832 65.4109L54.6863 65.8117L59.5805 55.3791L58.7261 54.9783ZM53.8173 65.4458C53.6288 65.9488 53.0721 66.5092 52.1774 66.5282L52.1974 67.4716C53.5175 67.4436 54.3914 66.6032 54.701 65.7768L53.8173 65.4458ZM52.1774 66.5282C51.9104 66.5338 51.5918 66.4009 51.3123 66.1469C51.0337 65.8939 50.8504 65.5709 50.8076 65.2833L49.8742 65.4223C49.9557 65.9697 50.2747 66.4792 50.6778 66.8454C51.0799 67.2107 51.6224 67.4838 52.1974 67.4716L52.1774 66.5282ZM65.5519 59.8307C66.5928 62.394 67.106 64.0257 67.4358 65.211L68.3449 64.9581C68.0052 63.737 67.4802 62.0713 66.4262 59.4757L65.5519 59.8307ZM52.0391 59.5294C50.9802 62.0612 50.2264 63.9254 49.8844 65.2334L50.7974 65.4722C51.119 64.2423 51.842 62.4462 52.9097 59.8935L52.0391 59.5294ZM62.5432 46.3369C62.5944 50.9971 63.8137 55.5504 65.5519 59.8307L66.4262 59.4757C64.7159 55.2641 63.5363 50.8312 63.4868 46.3265L62.5432 46.3369ZM54.8216 46.3278C54.7719 50.8564 53.7896 55.344 52.0391 59.5294L52.9097 59.8935C54.704 55.6034 55.7141 50.996 55.7652 46.3382L54.8216 46.3278ZM63.7303 44.3869C63.4664 44.5011 63.1484 44.6841 62.9369 45.005L63.7248 45.5243C63.7887 45.4274 63.9099 45.3374 64.1052 45.2529L63.7303 44.3869ZM61.7448 36.2192C61.7448 37.7366 60.5148 38.9667 58.9974 38.9667V39.9103C61.0359 39.9103 62.6885 38.2578 62.6885 36.2192H61.7448ZM58.9974 38.9667C57.4801 38.9667 56.25 37.7366 56.25 36.2192H55.3064C55.3064 38.2578 56.9589 39.9103 58.9974 39.9103V38.9667ZM56.25 36.2192C56.25 34.7019 57.4801 33.4718 58.9974 33.4718V32.5282C56.9589 32.5282 55.3064 34.1807 55.3064 36.2192H56.25ZM58.9974 33.4718C60.5148 33.4718 61.7448 34.7019 61.7448 36.2192H62.6885C62.6885 34.1807 61.0359 32.5282 58.9974 32.5282V33.4718Z" fill="#59595B"/>
</g>
<defs>
<filter id="filter0_d_2630_16930" x="0.528076" y="0.528076" width="117.204" height="122.944" filterUnits="userSpaceOnUse" color-interpolation-filters="sRGB">
<feFlood flood-opacity="0" result="BackgroundImageFix"/>
<feColorMatrix in="SourceAlpha" type="matrix" values="0 0 0 0 0 0 0 0 0 0 0 0 0 0 0 0 0 0 127 0" result="hardAlpha"/>
<feMorphology radius="4" operator="dilate" in="SourceAlpha" result="effect1_dropShadow_2630_16930"/>
<feOffset dy="12"/>
<feGaussianBlur stdDeviation="20"/>
<feComposite in2="hardAlpha" operator="out"/>
<feColorMatrix type="matrix" values="0 0 0 0 0 0 0 0 0 0 0 0 0 0 0 0 0 0 0.2 0"/>
<feBlend mode="normal" in2="BackgroundImageFix" result="effect1_dropShadow_2630_16930"/>
<feBlend mode="normal" in="SourceGraphic" in2="effect1_dropShadow_2630_16930" result="shape"/>
</filter>
</defs>
</svg>
