<svg width="62" height="60" viewBox="0 0 62 60" fill="none" xmlns="http://www.w3.org/2000/svg">
<path d="M59.0631 13.4731C57.9292 14.6063 56.8287 15.7062 56.7953 16.806C56.6953 17.8725 57.8292 18.9724 58.8964 20.0056C60.4972 21.672 62.0646 23.1718 61.9979 24.8049C61.9312 26.438 60.2304 28.1378 58.5295 29.8042L44.7559 43.6023L40.0202 38.8696L54.194 24.7382L50.9924 21.5387L46.2567 26.238L33.7504 13.7398L46.5568 0.974865C47.8575 -0.324955 50.0252 -0.324955 51.2592 0.974865L59.0631 8.77378C60.3638 10.0069 60.3638 12.1733 59.0631 13.4731ZM0 47.5017L31.8828 15.6062L44.3891 28.1044L12.5063 60H0V47.5017Z" fill="white"/>
</svg>
