<svg width="119" height="119" viewBox="0 0 119 119" fill="none" xmlns="http://www.w3.org/2000/svg">
<path d="M45 22.5C39.201 22.5 34.5 27.201 34.5 33V63C34.5 68.799 39.201 73.5 45 73.5H75C80.799 73.5 85.5 68.799 85.5 63V33C85.5 27.201 80.799 22.5 75 22.5H45Z" fill="#EDEDED" stroke="#D7D7D7"/>
<g filter="url(#filter0_d_2630_16931)">
<path fill-rule="evenodd" clip-rule="evenodd" d="M75 47.5C75 56.0604 68.0604 63 59.5 63C50.9396 63 44 56.0604 44 47.5C44 38.9396 50.9396 32 59.5 32C68.0604 32 75 38.9396 75 47.5ZM57.9816 51.9026C57.9354 51.9026 57.896 51.869 57.8893 51.8233C57.7823 51.0899 57.8211 50.4376 58.0059 49.8664C58.2146 49.2573 58.4933 48.7091 58.8412 48.2218C59.2066 47.7345 59.581 47.282 59.9637 46.8643C60.3465 46.4292 60.6686 46.0028 60.9296 45.5851C61.1906 45.1674 61.3212 44.7237 61.3212 44.2538C61.3212 43.8361 61.2341 43.4706 61.0602 43.1573C60.9036 42.8441 60.6685 42.6004 60.3553 42.4264C60.0421 42.2524 59.6591 42.1653 59.2067 42.1653C58.6847 42.1653 58.1972 42.2872 57.7448 42.5308C57.3098 42.7745 56.9006 43.1051 56.5179 43.5228C56.5179 43.5228 55.6236 44.3996 54.848 43.5228C54.2148 42.8069 54.8471 41.9826 54.8471 41.9826C55.4213 41.3213 56.1004 40.7818 56.8833 40.3641C57.6837 39.929 58.5805 39.7114 59.5722 39.7114C60.4769 39.7114 61.2779 39.8768 61.9738 40.2074C62.6872 40.5207 63.2444 40.9993 63.6446 41.6432C64.0447 42.2872 64.245 43.0877 64.245 44.0449C64.245 44.7063 64.1057 45.298 63.8273 45.8201C63.5663 46.3422 63.2355 46.8295 62.8353 47.282C62.4351 47.7345 62.0433 48.187 61.6606 48.6394C61.2952 49.0919 60.9992 49.5792 60.773 50.1013C60.5584 50.5967 60.4769 51.1626 60.5285 51.7989C60.533 51.8544 60.4897 51.9026 60.434 51.9026H57.9816ZM57.8492 57.2542C58.232 57.6371 58.6934 57.8285 59.2328 57.8285C59.7895 57.8285 60.251 57.6371 60.6164 57.2542C60.9991 56.8539 61.1907 56.3666 61.1907 55.7923C61.1907 55.2006 60.9991 54.7133 60.6164 54.3304C60.251 53.9475 59.7895 53.7561 59.2328 53.7561C58.6934 53.7561 58.232 53.9475 57.8492 54.3304C57.4839 54.7133 57.301 55.2006 57.301 55.7923C57.301 56.3666 57.4839 56.8539 57.8492 57.2542Z" fill="#59595B"/>
</g>
<defs>
<filter id="filter0_d_2630_16931" x="0" y="0" width="119" height="119" filterUnits="userSpaceOnUse" color-interpolation-filters="sRGB">
<feFlood flood-opacity="0" result="BackgroundImageFix"/>
<feColorMatrix in="SourceAlpha" type="matrix" values="0 0 0 0 0 0 0 0 0 0 0 0 0 0 0 0 0 0 127 0" result="hardAlpha"/>
<feMorphology radius="4" operator="dilate" in="SourceAlpha" result="effect1_dropShadow_2630_16931"/>
<feOffset dy="12"/>
<feGaussianBlur stdDeviation="20"/>
<feComposite in2="hardAlpha" operator="out"/>
<feColorMatrix type="matrix" values="0 0 0 0 0 0 0 0 0 0 0 0 0 0 0 0 0 0 0.2 0"/>
<feBlend mode="normal" in2="BackgroundImageFix" result="effect1_dropShadow_2630_16931"/>
<feBlend mode="normal" in="SourceGraphic" in2="effect1_dropShadow_2630_16931" result="shape"/>
</filter>
</defs>
</svg>
