<svg width="76" height="82" viewBox="0 0 76 82" fill="none" xmlns="http://www.w3.org/2000/svg">
<g clip-path="url(#clip0_2588_16901)">
<path opacity="0.47" d="M43.8664 69.5419C53.5805 69.5419 61.4554 61.6671 61.4554 51.9529C61.4554 42.2387 53.5805 34.3639 43.8664 34.3639C34.1522 34.3639 26.2773 42.2387 26.2773 51.9529C26.2773 61.6671 34.1522 69.5419 43.8664 69.5419Z" stroke="#E9ECF1" stroke-width="1.01145" stroke-miterlimit="10"/>
<path opacity="0.63" d="M44.0888 69.1626C53.8029 69.1626 61.6778 61.2878 61.6778 51.5736C61.6778 41.8594 53.8029 33.9846 44.0888 33.9846C34.3746 33.9846 26.4998 41.8594 26.4998 51.5736C26.4998 61.2878 34.3746 69.1626 44.0888 69.1626Z" fill="white" stroke="#A7A9AC" stroke-width="1.01145" stroke-miterlimit="10"/>
<path d="M23.8589 32.8406L30.4788 39.7903" stroke="#E9ECF1" stroke-width="1.01145" stroke-miterlimit="10"/>
<path d="M21.7482 33.667C23.4709 33.667 24.8675 32.2704 24.8675 30.5477C24.8675 28.8249 23.4709 27.4284 21.7482 27.4284C20.0255 27.4284 18.6289 28.8249 18.6289 30.5477C18.6289 32.2704 20.0255 33.667 21.7482 33.667Z" fill="#E9ECF1"/>
<path d="M70.2903 69.0261L50.5388 54.6656" stroke="#59595B" stroke-width="1.51717" stroke-miterlimit="10"/>
<path d="M32.4563 77.588L43.2697 54.6656" stroke="#59595B" stroke-width="1.31488" stroke-miterlimit="10"/>
<path d="M6.18091 51.0163L44.1425 52.7681" stroke="#1CACE0" stroke-width="2.02289" stroke-miterlimit="10"/>
<path d="M70.6737 25.9719L48.1094 48.4968" stroke="#59595B" stroke-width="1.51717" stroke-miterlimit="10"/>
<path d="M36.1248 11.6711L43.2696 40.2717" stroke="#1CACE0" stroke-width="2.02289" stroke-miterlimit="10"/>
<path d="M35.3349 14.4819C39.334 14.4819 42.5759 11.24 42.5759 7.24094C42.5759 3.24188 39.334 0 35.3349 0C31.3359 0 28.094 3.24188 28.094 7.24094C28.094 11.24 31.3359 14.4819 35.3349 14.4819Z" fill="#1CACE0"/>
<path d="M6.18094 56.8503C9.59458 56.8503 12.3619 54.083 12.3619 50.6694C12.3619 47.2557 9.59458 44.4884 6.18094 44.4884C2.7673 44.4884 0 47.2557 0 50.6694C0 54.083 2.7673 56.8503 6.18094 56.8503Z" fill="#1CACE0"/>
<path d="M70.6736 29.8214C73.5873 29.8214 75.9493 27.4594 75.9493 24.5457C75.9493 21.6321 73.5873 19.2701 70.6736 19.2701C67.76 19.2701 65.3979 21.6321 65.3979 24.5457C65.3979 27.4594 67.76 29.8214 70.6736 29.8214Z" fill="#59595B" stroke="#59595B" stroke-width="0.101145" stroke-miterlimit="10"/>
<path d="M70.2903 73.9184C72.9923 73.9184 75.1827 71.7281 75.1827 69.0261C75.1827 66.3241 72.9923 64.1337 70.2903 64.1337C67.5883 64.1337 65.3979 66.3241 65.3979 69.0261C65.3979 71.7281 67.5883 73.9184 70.2903 73.9184Z" fill="#59595B" stroke="#59595B" stroke-width="0.101145" stroke-miterlimit="10"/>
<path d="M32.4564 81.2565C34.4824 81.2565 36.1249 79.614 36.1249 77.588C36.1249 75.5619 34.4824 73.9195 32.4564 73.9195C30.4303 73.9195 28.7878 75.5619 28.7878 77.588C28.7878 79.614 30.4303 81.2565 32.4564 81.2565Z" fill="#59595B" stroke="#59595B" stroke-width="0.101145" stroke-miterlimit="10"/>
<path d="M44.1426 65.393C51.7899 65.393 57.9893 59.1936 57.9893 51.5463C57.9893 43.899 51.7899 37.6996 44.1426 37.6996C36.4953 37.6996 30.2959 43.899 30.2959 51.5463C30.2959 59.1936 36.4953 65.393 44.1426 65.393Z" fill="#1CACE0"/>
<mask id="mask0_2588_16901" style="mask-type:alpha" maskUnits="userSpaceOnUse" x="30" y="37" width="28" height="29">
<path d="M44.0889 65.4203C51.7362 65.4203 57.9356 59.2209 57.9356 51.5736C57.9356 43.9263 51.7362 37.7269 44.0889 37.7269C36.4416 37.7269 30.2422 43.9263 30.2422 51.5736C30.2422 59.2209 36.4416 65.4203 44.0889 65.4203Z" fill="#1CACE0"/>
</mask>
<g mask="url(#mask0_2588_16901)">
<path d="M25.1616 43.6368C25.1616 43.6368 40.2888 57.3762 60.4145 47.188Z" fill="#1CACE0"/>
<path d="M25.1616 43.6368C25.1616 43.6368 40.2888 57.3762 60.4145 47.188" stroke="white" stroke-width="1.01145" stroke-miterlimit="10"/>
<path d="M31.0039 61.9095C31.0039 61.9095 45.9591 60.4935 60.0991 50.0635" stroke="white" stroke-width="1.01145" stroke-miterlimit="10"/>
</g>
<path d="M41.9405 63.183C43.6269 63.183 44.9941 61.8159 44.9941 60.1294C44.9941 58.443 43.6269 57.0759 41.9405 57.0759C40.2541 57.0759 38.887 58.443 38.887 60.1294C38.887 61.8159 40.2541 63.183 41.9405 63.183Z" fill="white"/>
<path d="M48.8205 53.0543C50.0349 53.0543 51.0193 52.0699 51.0193 50.8555C51.0193 49.6411 50.0349 48.6566 48.8205 48.6566C47.6061 48.6566 46.6216 49.6411 46.6216 50.8555C46.6216 52.0699 47.6061 53.0543 48.8205 53.0543Z" fill="white"/>
<path opacity="0.63" d="M23.8589 32.8406L30.5799 39.6891" stroke="#A7A9AC" stroke-width="1.01145" stroke-miterlimit="10"/>
<path opacity="0.63" d="M21.7482 33.667C23.4709 33.667 24.8675 32.2704 24.8675 30.5477C24.8675 28.8249 23.4709 27.4284 21.7482 27.4284C20.0255 27.4284 18.6289 28.8249 18.6289 30.5477C18.6289 32.2704 20.0255 33.667 21.7482 33.667Z" fill="#A7A9AC"/>
</g>
<defs>
<clipPath id="clip0_2588_16901">
<rect width="76" height="81.3071" fill="white"/>
</clipPath>
</defs>
</svg>
