<svg width="58" height="61" viewBox="0 0 58 61" fill="none" xmlns="http://www.w3.org/2000/svg">
<path d="M57.0413 51.2087L48.1663 42.3337V48.2503H36.333V54.167H48.1663V60.0837L57.0413 51.2087ZM29.8247 60.0837H6.74967C3.49551 60.0837 0.833008 57.4212 0.833008 54.167V6.83366C0.833008 3.57949 3.49551 0.916992 6.74967 0.916992H30.4163L48.1663 18.667V33.7545C47.2788 33.4587 46.0955 33.4587 45.208 33.4587C44.3205 33.4587 43.1372 33.4587 42.2497 33.7545V21.6253H27.458V6.83366H6.74967V54.167H27.7538C28.0497 56.2378 28.9372 58.3087 29.8247 60.0837ZM12.6663 30.5003H36.333V35.8253C36.0372 36.1212 35.7413 36.1212 35.4455 36.417H12.6663V30.5003ZM12.6663 42.3337H27.458V48.2503H12.6663V42.3337Z" fill="white"/>
</svg>
